<?xml version="1.0" encoding="UTF-8" standalone="no"?>
<!DOCTYPE svg PUBLIC "-//W3C//DTD SVG 1.1//EN"
 "http://www.w3.org/Graphics/SVG/1.1/DTD/svg11.dtd">
<!-- Generated by graphviz version 2.26.3 (20100126.1600)
 -->
<!-- Title: OEIX Pages: 1 -->
<svg width="324pt" height="120pt"
 viewBox="0.00 0.00 324.00 120.00" xmlns="http://www.w3.org/2000/svg" xmlns:xlink="http://www.w3.org/1999/xlink">
<g id="graph1" class="graph" transform="scale(1 1) rotate(0) translate(4 116)">
<title>OEIX</title>
<polygon fill="white" stroke="white" points="-4,5 -4,-116 321,-116 321,5 -4,5"/>
<!-- Obesity (X1) -->
<g id="node1" class="node"><title>Obesity (X1)</title>
<ellipse fill="none" stroke="black" cx="73" cy="-93" rx="73.0388" ry="18.3848"/>
<text text-anchor="middle" x="73" y="-89.4" font-family="Times Roman,serif" font-size="14.00">Obesity (X1)</text>
</g>
<!-- Exercise (X3) -->
<g id="node3" class="node"><title>Exercise (X3)</title>
<ellipse fill="none" stroke="black" cx="156" cy="-19" rx="75.1594" ry="18.3848"/>
<text text-anchor="middle" x="156" y="-15.4" font-family="Times Roman,serif" font-size="14.00">Exercise (X3)</text>
</g>
<!-- Obesity (X1)&#45;&gt;Exercise (X3) -->
<g id="edge2" class="edge"><title>Obesity (X1)&#45;&gt;Exercise (X3)</title>
<path fill="none" stroke="black" d="M93.092,-75.0867C103.617,-65.703 116.672,-54.0639 128.156,-43.8249"/>
<polygon fill="black" stroke="black" points="130.67,-46.2721 135.805,-37.0049 126.012,-41.0472 130.67,-46.2721"/>
</g>
<!-- Internet (X2) -->
<g id="node4" class="node"><title>Internet (X2)</title>
<ellipse fill="none" stroke="black" cx="240" cy="-93" rx="75.8684" ry="18.3848"/>
<text text-anchor="middle" x="240" y="-89.4" font-family="Times Roman,serif" font-size="14.00">Internet (X2)</text>
</g>
<!-- Internet (X2)&#45;&gt;Exercise (X3) -->
<g id="edge4" class="edge"><title>Internet (X2)&#45;&gt;Exercise (X3)</title>
<path fill="none" stroke="black" d="M219.666,-75.0867C209.014,-65.703 195.802,-54.0639 184.18,-43.8249"/>
<polygon fill="black" stroke="black" points="186.255,-40.9889 176.438,-37.0049 181.628,-46.2415 186.255,-40.9889"/>
</g>
</g>
</svg>
