<?xml version="1.0" encoding="UTF-8" standalone="no"?>
<!DOCTYPE svg PUBLIC "-//W3C//DTD SVG 1.1//EN"
 "http://www.w3.org/Graphics/SVG/1.1/DTD/svg11.dtd">
<!-- Generated by graphviz version 2.26.3 (20100126.1600)
 -->
<!-- Title: EY12 Pages: 1 -->
<svg width="268pt" height="120pt"
 viewBox="0.00 0.00 268.00 120.00" xmlns="http://www.w3.org/2000/svg" xmlns:xlink="http://www.w3.org/1999/xlink">
<g id="graph1" class="graph" transform="scale(1 1) rotate(0) translate(4 116)">
<title>EY12</title>
<polygon fill="white" stroke="white" points="-4,5 -4,-116 265,-116 265,5 -4,5"/>
<!-- Overweight -->
<g id="node1" class="node"><title>Overweight</title>
<ellipse fill="none" stroke="black" cx="69" cy="-93" rx="68.7979" ry="18.3848"/>
<text text-anchor="middle" x="69" y="-89.4" font-family="Times Roman,serif" font-size="14.00">Overweight</text>
</g>
<!-- Exercise -->
<g id="node3" class="node"><title>Exercise</title>
<ellipse fill="none" stroke="black" cx="138" cy="-19" rx="51.1176" ry="18.3848"/>
<text text-anchor="middle" x="138" y="-15.4" font-family="Times Roman,serif" font-size="14.00">Exercise</text>
</g>
<!-- Overweight&#45;&gt;Exercise -->
<g id="edge2" class="edge"><title>Overweight&#45;&gt;Exercise</title>
<path fill="none" stroke="black" d="M86.0562,-74.7079C94.7062,-65.431 105.342,-54.0249 114.731,-43.9549"/>
<polygon fill="black" stroke="black" points="117.355,-46.2729 121.615,-36.5721 112.236,-41.4991 117.355,-46.2729"/>
</g>
<!-- Internet -->
<g id="node4" class="node"><title>Internet</title>
<ellipse fill="none" stroke="black" cx="208" cy="-93" rx="51.8276" ry="18.3848"/>
<text text-anchor="middle" x="208" y="-89.4" font-family="Times Roman,serif" font-size="14.00">Internet</text>
</g>
<!-- Internet&#45;&gt;Exercise -->
<g id="edge4" class="edge"><title>Internet&#45;&gt;Exercise</title>
<path fill="none" stroke="black" d="M191.411,-75.463C182.583,-66.1311 171.572,-54.4899 161.844,-44.2062"/>
<polygon fill="black" stroke="black" points="164.127,-41.527 154.713,-36.6675 159.042,-46.3375 164.127,-41.527"/>
</g>
</g>
</svg>
