<?xml version="1.0" encoding="UTF-8" standalone="no"?>
<!DOCTYPE svg PUBLIC "-//W3C//DTD SVG 1.1//EN"
 "http://www.w3.org/Graphics/SVG/1.1/DTD/svg11.dtd">
<!-- Generated by graphviz version 2.26.3 (20100126.1600)
 -->
<!-- Title: Sneeze Pages: 1 -->
<svg width="320pt" height="218pt"
 viewBox="0.00 0.00 320.00 218.00" xmlns="http://www.w3.org/2000/svg" xmlns:xlink="http://www.w3.org/1999/xlink">
<g id="graph1" class="graph" transform="scale(1 1) rotate(0) translate(4 214)">
<title>Sneeze</title>
<polygon fill="white" stroke="white" points="-4,5 -4,-214 317,-214 317,5 -4,5"/>
<!-- Sun, earth, \n stars, people -->
<g id="node1" class="node"><title>Sun, earth, \n stars, people</title>
<ellipse fill="none" stroke="black" cx="157" cy="-179" rx="77.0746" ry="31.1127"/>
<text text-anchor="middle" x="157" y="-184.4" font-family="Times Roman,serif" font-size="14.00">Sun, earth, </text>
<text text-anchor="middle" x="157" y="-166.4" font-family="Times Roman,serif" font-size="14.00"> stars, people</text>
</g>
<!-- My sneeze -->
<g id="node3" class="node"><title>My sneeze</title>
<ellipse fill="none" stroke="black" cx="157" cy="-93" rx="63.1385" ry="18.3848"/>
<text text-anchor="middle" x="157" y="-89.4" font-family="Times Roman,serif" font-size="14.00">My sneeze</text>
</g>
<!-- Sun, earth, \n stars, people&#45;&gt;My sneeze -->
<g id="edge2" class="edge"><title>Sun, earth, \n stars, people&#45;&gt;My sneeze</title>
<path fill="none" stroke="black" d="M150.487,-147.952C150.138,-139.359 150.174,-130.075 150.597,-121.627"/>
<polygon fill="black" stroke="black" points="154.1,-121.718 151.339,-111.489 147.118,-121.207 154.1,-121.718"/>
</g>
<!-- My sneeze&#45;&gt;Sun, earth, \n stars, people -->
<g id="edge4" class="edge"><title>My sneeze&#45;&gt;Sun, earth, \n stars, people</title>
<path fill="none" stroke="black" d="M162.661,-111.489C163.435,-119.207 163.796,-128.507 163.745,-137.703"/>
<polygon fill="black" stroke="black" points="160.241,-137.875 163.513,-147.952 167.239,-138.034 160.241,-137.875"/>
</g>
<!-- YES_SNEEZE -->
<g id="node6" class="node"><title>YES_SNEEZE</title>
<ellipse fill="none" stroke="black" cx="75" cy="-19" rx="75.1594" ry="18.3848"/>
<text text-anchor="middle" x="75" y="-15.4" font-family="Times Roman,serif" font-size="14.00">YES_SNEEZE</text>
</g>
<!-- My sneeze&#45;&gt;YES_SNEEZE -->
<g id="edge6" class="edge"><title>My sneeze&#45;&gt;YES_SNEEZE</title>
<path fill="none" stroke="black" d="M137.15,-75.0867C126.752,-65.703 113.855,-54.0639 102.509,-43.8249"/>
<polygon fill="black" stroke="black" points="104.72,-41.1061 94.9513,-37.0049 100.03,-46.3029 104.72,-41.1061"/>
</g>
<!-- NO_SNEEZE -->
<g id="node8" class="node"><title>NO_SNEEZE</title>
<ellipse fill="none" stroke="black" cx="240" cy="-19" rx="72.1249" ry="18.3848"/>
<text text-anchor="middle" x="240" y="-15.4" font-family="Times Roman,serif" font-size="14.00">NO_SNEEZE</text>
</g>
<!-- My sneeze&#45;&gt;NO_SNEEZE -->
<g id="edge8" class="edge"><title>My sneeze&#45;&gt;NO_SNEEZE</title>
<path fill="none" stroke="black" d="M177.092,-75.0867C187.617,-65.703 200.672,-54.0639 212.156,-43.8249"/>
<polygon fill="black" stroke="black" points="214.67,-46.2721 219.805,-37.0049 210.012,-41.0472 214.67,-46.2721"/>
</g>
</g>
</svg>
