<?xml version="1.0" encoding="UTF-8" standalone="no"?>
<!DOCTYPE svg PUBLIC "-//W3C//DTD SVG 1.1//EN"
 "http://www.w3.org/Graphics/SVG/1.1/DTD/svg11.dtd">
<!-- Generated by graphviz version 2.26.3 (20100126.1600)
 -->
<!-- Title: Season Pages: 1 -->
<svg width="204pt" height="268pt"
 viewBox="0.00 0.00 204.00 268.00" xmlns="http://www.w3.org/2000/svg" xmlns:xlink="http://www.w3.org/1999/xlink">
<g id="graph1" class="graph" transform="scale(1 1) rotate(0) translate(4 264)">
<title>Season</title>
<polygon fill="white" stroke="white" points="-4,5 -4,-264 201,-264 201,5 -4,5"/>
<!-- Season -->
<g id="node1" class="node"><title>Season</title>
<ellipse fill="none" stroke="black" cx="109" cy="-241" rx="46.1672" ry="18.3848"/>
<text text-anchor="middle" x="109" y="-237.4" font-family="Times Roman,serif" font-size="14.00">Season</text>
</g>
<!-- Sprinkler -->
<g id="node3" class="node"><title>Sprinkler</title>
<ellipse fill="none" stroke="black" cx="56" cy="-167" rx="55.8614" ry="18.3848"/>
<text text-anchor="middle" x="56" y="-163.4" font-family="Times Roman,serif" font-size="14.00">Sprinkler</text>
</g>
<!-- Season&#45;&gt;Sprinkler -->
<g id="edge2" class="edge"><title>Season&#45;&gt;Sprinkler</title>
<path fill="none" stroke="black" d="M96.1702,-223.087C89.7726,-214.154 81.9112,-203.178 74.8443,-193.311"/>
<polygon fill="black" stroke="black" points="77.5637,-191.097 68.8954,-185.005 71.8727,-195.173 77.5637,-191.097"/>
</g>
<!-- Rain -->
<g id="node5" class="node"><title>Rain</title>
<ellipse fill="none" stroke="black" cx="163" cy="-167" rx="33.234" ry="18.3848"/>
<text text-anchor="middle" x="163" y="-163.4" font-family="Times Roman,serif" font-size="14.00">Rain</text>
</g>
<!-- Season&#45;&gt;Rain -->
<g id="edge4" class="edge"><title>Season&#45;&gt;Rain</title>
<path fill="none" stroke="black" d="M122.072,-223.087C128.802,-213.863 137.123,-202.461 144.501,-192.351"/>
<polygon fill="black" stroke="black" points="147.353,-194.38 150.42,-184.239 141.698,-190.254 147.353,-194.38"/>
</g>
<!-- Wet -->
<g id="node7" class="node"><title>Wet</title>
<ellipse fill="none" stroke="black" cx="109" cy="-93" rx="31.8198" ry="18.3848"/>
<text text-anchor="middle" x="109" y="-89.4" font-family="Times Roman,serif" font-size="14.00">Wet</text>
</g>
<!-- Sprinkler&#45;&gt;Wet -->
<g id="edge6" class="edge"><title>Sprinkler&#45;&gt;Wet</title>
<path fill="none" stroke="black" d="M69.1011,-148.708C75.5974,-139.638 83.5514,-128.532 90.6435,-118.63"/>
<polygon fill="black" stroke="black" points="93.6185,-120.487 96.5958,-110.319 87.9275,-116.411 93.6185,-120.487"/>
</g>
<!-- Rain&#45;&gt;Wet -->
<g id="edge8" class="edge"><title>Rain&#45;&gt;Wet</title>
<path fill="none" stroke="black" d="M150.476,-149.837C143.66,-140.497 135.097,-128.763 127.525,-118.386"/>
<polygon fill="black" stroke="black" points="130.178,-116.085 121.456,-110.07 124.524,-120.211 130.178,-116.085"/>
</g>
<!-- Slippery -->
<g id="node10" class="node"><title>Slippery</title>
<ellipse fill="none" stroke="black" cx="109" cy="-19" rx="50.9117" ry="18.3848"/>
<text text-anchor="middle" x="109" y="-15.4" font-family="Times Roman,serif" font-size="14.00">Slippery</text>
</g>
<!-- Wet&#45;&gt;Slippery -->
<g id="edge10" class="edge"><title>Wet&#45;&gt;Slippery</title>
<path fill="none" stroke="black" d="M109,-74.3267C109,-66.2639 109,-56.6477 109,-47.7115"/>
<polygon fill="black" stroke="black" points="112.5,-47.6673 109,-37.6674 105.5,-47.6674 112.5,-47.6673"/>
</g>
</g>
</svg>
