<?xml version="1.0" encoding="UTF-8" standalone="no"?>
<!DOCTYPE svg PUBLIC "-//W3C//DTD SVG 1.1//EN"
 "http://www.w3.org/Graphics/SVG/1.1/DTD/svg11.dtd">
<!-- Generated by graphviz version 2.26.3 (20100126.1600)
 -->
<!-- Title: EY4 Pages: 1 -->
<svg width="222pt" height="120pt"
 viewBox="0.00 0.00 222.00 120.00" xmlns="http://www.w3.org/2000/svg" xmlns:xlink="http://www.w3.org/1999/xlink">
<g id="graph1" class="graph" transform="scale(1 1) rotate(0) translate(4 116)">
<title>EY4</title>
<polygon fill="white" stroke="white" points="-4,5 -4,-116 219,-116 219,5 -4,5"/>
<!-- Burglar -->
<g id="node1" class="node"><title>Burglar</title>
<ellipse fill="none" stroke="black" cx="98" cy="-93" rx="48.0833" ry="18.3848"/>
<text text-anchor="middle" x="98" y="-89.4" font-family="Times Roman,serif" font-size="14.00">Burglar</text>
</g>
<!-- Alarm -->
<g id="node3" class="node"><title>Alarm</title>
<ellipse fill="none" stroke="black" cx="40" cy="-19" rx="39.8075" ry="18.3848"/>
<text text-anchor="middle" x="40" y="-15.4" font-family="Times Roman,serif" font-size="14.00">Alarm</text>
</g>
<!-- Burglar&#45;&gt;Alarm -->
<g id="edge2" class="edge"><title>Burglar&#45;&gt;Alarm</title>
<path fill="none" stroke="black" d="M83.9598,-75.0867C76.7832,-65.9303 67.9233,-54.6263 60.0422,-44.5711"/>
<polygon fill="black" stroke="black" points="62.6343,-42.2045 53.7107,-36.493 57.1249,-46.5227 62.6343,-42.2045"/>
</g>
<!-- Recession -->
<g id="node5" class="node"><title>Recession</title>
<ellipse fill="none" stroke="black" cx="156" cy="-19" rx="58.1882" ry="18.3848"/>
<text text-anchor="middle" x="156" y="-15.4" font-family="Times Roman,serif" font-size="14.00">Recession</text>
</g>
<!-- Burglar&#45;&gt;Recession -->
<g id="edge4" class="edge"><title>Burglar&#45;&gt;Recession</title>
<path fill="none" stroke="black" d="M112.04,-75.0867C119.112,-66.0639 127.818,-54.9559 135.612,-45.0123"/>
<polygon fill="black" stroke="black" points="138.474,-47.0345 141.888,-37.0049 132.965,-42.7163 138.474,-47.0345"/>
</g>
</g>
</svg>
