<?xml version="1.0" encoding="UTF-8" standalone="no"?>
<!DOCTYPE svg PUBLIC "-//W3C//DTD SVG 1.1//EN"
 "http://www.w3.org/Graphics/SVG/1.1/DTD/svg11.dtd">
<!-- Generated by graphviz version 2.26.3 (20100126.1600)
 -->
<!-- Title: EY7 Pages: 1 -->
<svg width="268pt" height="120pt"
 viewBox="0.00 0.00 268.00 120.00" xmlns="http://www.w3.org/2000/svg" xmlns:xlink="http://www.w3.org/1999/xlink">
<g id="graph1" class="graph" transform="scale(1 1) rotate(0) translate(4 116)">
<title>EY7</title>
<polygon fill="white" stroke="white" points="-4,5 -4,-116 265,-116 265,5 -4,5"/>
<!-- Exercise -->
<g id="node1" class="node"><title>Exercise</title>
<ellipse fill="none" stroke="black" cx="138" cy="-93" rx="51.1176" ry="18.3848"/>
<text text-anchor="middle" x="138" y="-89.4" font-family="Times Roman,serif" font-size="14.00">Exercise</text>
</g>
<!-- Overweight -->
<g id="node3" class="node"><title>Overweight</title>
<ellipse fill="none" stroke="black" cx="69" cy="-19" rx="68.7979" ry="18.3848"/>
<text text-anchor="middle" x="69" y="-15.4" font-family="Times Roman,serif" font-size="14.00">Overweight</text>
</g>
<!-- Exercise&#45;&gt;Overweight -->
<g id="edge2" class="edge"><title>Exercise&#45;&gt;Overweight</title>
<path fill="none" stroke="black" d="M121.648,-75.463C113.074,-66.2673 102.408,-54.8293 92.9238,-44.6574"/>
<polygon fill="black" stroke="black" points="95.3348,-42.1108 85.9552,-37.1839 90.2151,-46.8846 95.3348,-42.1108"/>
</g>
<!-- Internet -->
<g id="node5" class="node"><title>Internet</title>
<ellipse fill="none" stroke="black" cx="208" cy="-19" rx="51.8276" ry="18.3848"/>
<text text-anchor="middle" x="208" y="-15.4" font-family="Times Roman,serif" font-size="14.00">Internet</text>
</g>
<!-- Exercise&#45;&gt;Internet -->
<g id="edge4" class="edge"><title>Exercise&#45;&gt;Internet</title>
<path fill="none" stroke="black" d="M154.589,-75.463C163.417,-66.1311 174.428,-54.4899 184.156,-44.2062"/>
<polygon fill="black" stroke="black" points="186.958,-46.3375 191.287,-36.6675 181.873,-41.527 186.958,-46.3375"/>
</g>
</g>
</svg>
