<?xml version="1.0" encoding="UTF-8" standalone="no"?>
<!DOCTYPE svg PUBLIC "-//W3C//DTD SVG 1.1//EN"
 "http://www.w3.org/Graphics/SVG/1.1/DTD/svg11.dtd">
<!-- Generated by graphviz version 2.26.3 (20100126.1600)
 -->
<!-- Title: Shadow Pages: 1 -->
<svg width="198pt" height="120pt"
 viewBox="0.00 0.00 198.00 120.00" xmlns="http://www.w3.org/2000/svg" xmlns:xlink="http://www.w3.org/1999/xlink">
<g id="graph1" class="graph" transform="scale(1 1) rotate(0) translate(4 116)">
<title>Shadow</title>
<polygon fill="white" stroke="white" points="-4,5 -4,-116 195,-116 195,5 -4,5"/>
<!-- Earth -->
<g id="node1" class="node"><title>Earth</title>
<ellipse fill="none" stroke="black" cx="95" cy="-93" rx="38.8909" ry="18.3848"/>
<text text-anchor="middle" x="95" y="-89.4" font-family="Times Roman,serif" font-size="14.00">Earth</text>
</g>
<!-- Shadow particles -->
<g id="node3" class="node"><title>Shadow particles</title>
<ellipse fill="none" stroke="black" cx="95" cy="-19" rx="94.7523" ry="18.3848"/>
<text text-anchor="middle" x="95" y="-15.4" font-family="Times Roman,serif" font-size="14.00">Shadow particles</text>
</g>
<!-- Earth&#45;&gt;Shadow particles -->
<g id="edge2" class="edge"><title>Earth&#45;&gt;Shadow particles</title>
<path fill="none" stroke="black" d="M89.0843,-74.7079C88.2918,-66.5866 88.0639,-56.8335 88.4005,-47.7736"/>
<polygon fill="black" stroke="black" points="91.906,-47.7997 89.055,-37.5957 84.9204,-47.3505 91.906,-47.7997"/>
</g>
<!-- Shadow particles&#45;&gt;Earth -->
<g id="edge4" class="edge"><title>Shadow particles&#45;&gt;Earth</title>
<path fill="none" stroke="black" d="M100.945,-37.5957C101.723,-45.7572 101.937,-55.5216 101.587,-64.5639"/>
<polygon fill="black" stroke="black" points="98.0834,-64.4986 100.916,-74.7079 105.068,-64.9607 98.0834,-64.4986"/>
<text text-anchor="middle" x="102.236" y="-51.1515" font-family="Times Roman,serif" font-size="14.00" fill="red">X</text>
</g>
</g>
</svg>
