<?xml version="1.0" encoding="UTF-8" standalone="no"?>
<!DOCTYPE svg PUBLIC "-//W3C//DTD SVG 1.1//EN"
 "http://www.w3.org/Graphics/SVG/1.1/DTD/svg11.dtd">
<!-- Generated by graphviz version 2.26.3 (20100126.1600)
 -->
<!-- Title: Direct Pages: 1 -->
<svg width="128pt" height="194pt"
 viewBox="0.00 0.00 127.95 194.00" xmlns="http://www.w3.org/2000/svg" xmlns:xlink="http://www.w3.org/1999/xlink">
<g id="graph1" class="graph" transform="scale(1 1) rotate(0) translate(4 190)">
<title>Direct</title>
<polygon fill="white" stroke="white" points="-4,5 -4,-190 124.952,-190 124.952,5 -4,5"/>
<!-- Recession -->
<g id="node1" class="node"><title>Recession</title>
<ellipse fill="none" stroke="black" cx="58" cy="-167" rx="58.1882" ry="18.3848"/>
<text text-anchor="middle" x="58" y="-163.4" font-family="Times Roman,serif" font-size="14.00">Recession</text>
</g>
<!-- Burglar -->
<g id="node3" class="node"><title>Burglar</title>
<ellipse fill="none" stroke="black" cx="58" cy="-93" rx="48.0833" ry="18.3848"/>
<text text-anchor="middle" x="58" y="-89.4" font-family="Times Roman,serif" font-size="14.00">Burglar</text>
</g>
<!-- Recession&#45;&gt;Burglar -->
<g id="edge2" class="edge"><title>Recession&#45;&gt;Burglar</title>
<path fill="none" stroke="black" d="M58,-148.327C58,-140.264 58,-130.648 58,-121.711"/>
<polygon fill="black" stroke="black" points="61.5001,-121.667 58,-111.667 54.5001,-121.667 61.5001,-121.667"/>
</g>
<!-- Alarm -->
<g id="node5" class="node"><title>Alarm</title>
<ellipse fill="none" stroke="black" cx="58" cy="-19" rx="39.8075" ry="18.3848"/>
<text text-anchor="middle" x="58" y="-15.4" font-family="Times Roman,serif" font-size="14.00">Alarm</text>
</g>
<!-- Recession&#45;&gt;Alarm -->
<g id="edge4" class="edge"><title>Recession&#45;&gt;Alarm</title>
<path fill="none" stroke="black" d="M83.1118,-150.26C95.1889,-140.657 108.442,-127.442 115,-112 121.602,-96.455 121.602,-89.545 115,-74 109.474,-60.9888 99.1951,-49.5585 88.8714,-40.5375"/>
<polygon fill="black" stroke="black" points="90.9985,-37.7555 81.046,-34.1225 86.5606,-43.169 90.9985,-37.7555"/>
</g>
<!-- Burglar&#45;&gt;Alarm -->
</g>
</svg>
