<?xml version="1.0" encoding="UTF-8" standalone="no"?>
<!DOCTYPE svg PUBLIC "-//W3C//DTD SVG 1.1//EN"
 "http://www.w3.org/Graphics/SVG/1.1/DTD/svg11.dtd">
<!-- Generated by graphviz version 2.26.3 (20100126.1600)
 -->
<!-- Title: Love Pages: 1 -->
<svg width="289pt" height="272pt"
 viewBox="0.00 0.00 289.00 272.00" xmlns="http://www.w3.org/2000/svg" xmlns:xlink="http://www.w3.org/1999/xlink">
<g id="graph1" class="graph" transform="scale(1 1) rotate(0) translate(4 268)">
<title>Love</title>
<polygon fill="white" stroke="white" points="-4,5 -4,-268 286,-268 286,5 -4,5"/>
<!-- p -->
<g id="node1" class="node"><title>p</title>
<ellipse fill="none" stroke="black" cx="126" cy="-245" rx="77.9889" ry="18.3848"/>
<text text-anchor="middle" x="126" y="-241.4" font-family="Times Roman,serif" font-size="14.00">Partner&#39;s love</text>
</g>
<!-- h -->
<g id="node2" class="node"><title>h</title>
<ellipse fill="none" stroke="black" cx="126" cy="-141" rx="126.072" ry="31.1127"/>
<text text-anchor="middle" x="126" y="-146.4" font-family="Times Roman,serif" font-size="14.00">Holistic purely spiritual </text>
<text text-anchor="middle" x="126" y="-128.4" font-family="Times Roman,serif" font-size="14.00"> nature of universe</text>
</g>
<!-- p&#45;&gt;h -->
<g id="edge2" class="edge"><title>p&#45;&gt;h</title>
<path fill="none" stroke="black" d="M126,-226.407C126,-214.159 126,-197.624 126,-182.365"/>
<polygon fill="black" stroke="black" points="129.5,-182.074 126,-172.074 122.5,-182.074 129.5,-182.074"/>
<text text-anchor="middle" x="203.5" y="-195.4" font-family="Times Roman,serif" font-size="14.00">IS SEEN BY / AFFECTS</text>
</g>
<!-- m -->
<g id="node3" class="node"><title>m</title>
<ellipse fill="none" stroke="black" cx="126" cy="-19" rx="27" ry="18.3848"/>
<text text-anchor="middle" x="126" y="-15.4" font-family="Times Roman,serif" font-size="14.00">Me</text>
</g>
<!-- h&#45;&gt;m -->
<g id="edge4" class="edge"><title>h&#45;&gt;m</title>
<path fill="none" stroke="black" d="M126,-109.899C126,-90.7779 126,-66.4502 126,-47.7751"/>
<polygon fill="black" stroke="black" points="129.5,-47.5146 126,-37.5147 122.5,-47.5147 129.5,-47.5146"/>
<text text-anchor="middle" x="202.5" y="-79.4" font-family="Times Roman,serif" font-size="14.00">SPEAKS WITHIN </text>
<text text-anchor="middle" x="202.5" y="-61.4" font-family="Times Roman,serif" font-size="14.00"> HEART OF / AFFECTS</text>
</g>
</g>
</svg>
