<?xml version="1.0" encoding="UTF-8" standalone="no"?>
<!DOCTYPE svg PUBLIC "-//W3C//DTD SVG 1.1//EN"
 "http://www.w3.org/Graphics/SVG/1.1/DTD/svg11.dtd">
<!-- Generated by graphviz version 2.26.3 (20100126.1600)
 -->
<!-- Title: Alarm Pages: 1 -->
<svg width="268pt" height="194pt"
 viewBox="0.00 0.00 268.00 194.00" xmlns="http://www.w3.org/2000/svg" xmlns:xlink="http://www.w3.org/1999/xlink">
<g id="graph1" class="graph" transform="scale(1 1) rotate(0) translate(4 190)">
<title>Alarm</title>
<polygon fill="white" stroke="white" points="-4,5 -4,-190 265,-190 265,5 -4,5"/>
<!-- Recession -->
<g id="node1" class="node"><title>Recession</title>
<ellipse fill="none" stroke="black" cx="58" cy="-167" rx="58.1882" ry="18.3848"/>
<text text-anchor="middle" x="58" y="-163.4" font-family="Times Roman,serif" font-size="14.00">Recession</text>
</g>
<!-- Burglar -->
<g id="node3" class="node"><title>Burglar</title>
<ellipse fill="none" stroke="black" cx="58" cy="-93" rx="48.0833" ry="18.3848"/>
<text text-anchor="middle" x="58" y="-89.4" font-family="Times Roman,serif" font-size="14.00">Burglar</text>
</g>
<!-- Recession&#45;&gt;Burglar -->
<g id="edge2" class="edge"><title>Recession&#45;&gt;Burglar</title>
<path fill="none" stroke="black" d="M58,-148.327C58,-140.264 58,-130.648 58,-121.711"/>
<polygon fill="black" stroke="black" points="61.5001,-121.667 58,-111.667 54.5001,-121.667 61.5001,-121.667"/>
</g>
<!-- Alarm -->
<g id="node5" class="node"><title>Alarm</title>
<ellipse fill="none" stroke="black" cx="125" cy="-19" rx="39.8075" ry="18.3848"/>
<text text-anchor="middle" x="125" y="-15.4" font-family="Times Roman,serif" font-size="14.00">Alarm</text>
</g>
<!-- Burglar&#45;&gt;Alarm -->
<g id="edge4" class="edge"><title>Burglar&#45;&gt;Alarm</title>
<path fill="none" stroke="black" d="M73.8781,-75.463C82.4506,-65.9948 93.1754,-54.1495 102.585,-43.7567"/>
<polygon fill="black" stroke="black" points="105.35,-45.9179 109.467,-36.1558 100.161,-41.2197 105.35,-45.9179"/>
</g>
<!-- Earthquake -->
<g id="node6" class="node"><title>Earthquake</title>
<ellipse fill="none" stroke="black" cx="192" cy="-93" rx="67.8823" ry="18.3848"/>
<text text-anchor="middle" x="192" y="-89.4" font-family="Times Roman,serif" font-size="14.00">Earthquake</text>
</g>
<!-- Earthquake&#45;&gt;Alarm -->
<g id="edge6" class="edge"><title>Earthquake&#45;&gt;Alarm</title>
<path fill="none" stroke="black" d="M175.438,-74.7079C166.915,-65.2946 156.408,-53.689 147.193,-43.5115"/>
<polygon fill="black" stroke="black" points="149.759,-41.131 140.453,-36.0671 144.57,-45.8292 149.759,-41.131"/>
</g>
</g>
</svg>
