<?xml version="1.0" encoding="UTF-8" standalone="no"?>
<!DOCTYPE svg PUBLIC "-//W3C//DTD SVG 1.1//EN"
 "http://www.w3.org/Graphics/SVG/1.1/DTD/svg11.dtd">
<!-- Generated by graphviz version 2.26.3 (20100126.1600)
 -->
<!-- Title: Corr3 Pages: 1 -->
<svg width="134pt" height="120pt"
 viewBox="0.00 0.00 134.00 120.00" xmlns="http://www.w3.org/2000/svg" xmlns:xlink="http://www.w3.org/1999/xlink">
<g id="graph1" class="graph" transform="scale(1 1) rotate(0) translate(4 116)">
<title>Corr3</title>
<polygon fill="white" stroke="white" points="-4,5 -4,-116 131,-116 131,5 -4,5"/>
<!-- C -->
<g id="node1" class="node"><title>C</title>
<ellipse fill="none" stroke="black" cx="63" cy="-93" rx="27" ry="18.3848"/>
<text text-anchor="middle" x="63" y="-89.4" font-family="Times Roman,serif" font-size="14.00">C</text>
</g>
<!-- A -->
<g id="node3" class="node"><title>A</title>
<ellipse fill="none" stroke="black" cx="27" cy="-19" rx="27" ry="18.3848"/>
<text text-anchor="middle" x="27" y="-15.4" font-family="Times Roman,serif" font-size="14.00">A</text>
</g>
<!-- C&#45;&gt;A -->
<g id="edge2" class="edge"><title>C&#45;&gt;A</title>
<path fill="none" stroke="black" d="M54.2854,-75.0867C50.0403,-66.3607 44.8464,-55.6843 40.1337,-45.9971"/>
<polygon fill="black" stroke="black" points="43.1564,-44.2096 35.6343,-36.7484 36.8617,-47.2719 43.1564,-44.2096"/>
</g>
<!-- B -->
<g id="node5" class="node"><title>B</title>
<ellipse fill="none" stroke="black" cx="99" cy="-19" rx="27" ry="18.3848"/>
<text text-anchor="middle" x="99" y="-15.4" font-family="Times Roman,serif" font-size="14.00">B</text>
</g>
<!-- C&#45;&gt;B -->
<g id="edge4" class="edge"><title>C&#45;&gt;B</title>
<path fill="none" stroke="black" d="M71.7146,-75.0867C75.9597,-66.3607 81.1536,-55.6843 85.8663,-45.9971"/>
<polygon fill="black" stroke="black" points="89.1383,-47.2719 90.3657,-36.7484 82.8436,-44.2096 89.1383,-47.2719"/>
</g>
</g>
</svg>
