<?xml version="1.0" encoding="UTF-8" standalone="no"?>
<!DOCTYPE svg PUBLIC "-//W3C//DTD SVG 1.1//EN"
 "http://www.w3.org/Graphics/SVG/1.1/DTD/svg11.dtd">
<!-- Generated by graphviz version 2.26.3 (20100126.1600)
 -->
<!-- Title: EY8 Pages: 1 -->
<svg width="146pt" height="194pt"
 viewBox="0.00 0.00 146.00 194.00" xmlns="http://www.w3.org/2000/svg" xmlns:xlink="http://www.w3.org/1999/xlink">
<g id="graph1" class="graph" transform="scale(1 1) rotate(0) translate(4 190)">
<title>EY8</title>
<polygon fill="white" stroke="white" points="-4,5 -4,-190 143,-190 143,5 -4,5"/>
<!-- Overweight -->
<g id="node1" class="node"><title>Overweight</title>
<ellipse fill="none" stroke="black" cx="69" cy="-167" rx="68.7979" ry="18.3848"/>
<text text-anchor="middle" x="69" y="-163.4" font-family="Times Roman,serif" font-size="14.00">Overweight</text>
</g>
<!-- Exercise -->
<g id="node3" class="node"><title>Exercise</title>
<ellipse fill="none" stroke="black" cx="69" cy="-93" rx="51.1176" ry="18.3848"/>
<text text-anchor="middle" x="69" y="-89.4" font-family="Times Roman,serif" font-size="14.00">Exercise</text>
</g>
<!-- Overweight&#45;&gt;Exercise -->
<g id="edge2" class="edge"><title>Overweight&#45;&gt;Exercise</title>
<path fill="none" stroke="black" d="M69,-148.327C69,-140.264 69,-130.648 69,-121.711"/>
<polygon fill="black" stroke="black" points="72.5001,-121.667 69,-111.667 65.5001,-121.667 72.5001,-121.667"/>
</g>
<!-- Internet -->
<g id="node5" class="node"><title>Internet</title>
<ellipse fill="none" stroke="black" cx="69" cy="-19" rx="51.8276" ry="18.3848"/>
<text text-anchor="middle" x="69" y="-15.4" font-family="Times Roman,serif" font-size="14.00">Internet</text>
</g>
<!-- Exercise&#45;&gt;Internet -->
<g id="edge4" class="edge"><title>Exercise&#45;&gt;Internet</title>
<path fill="none" stroke="black" d="M69,-74.3267C69,-66.2639 69,-56.6477 69,-47.7115"/>
<polygon fill="black" stroke="black" points="72.5001,-47.6673 69,-37.6674 65.5001,-47.6674 72.5001,-47.6673"/>
</g>
</g>
</svg>
