<?xml version="1.0" encoding="UTF-8" standalone="no"?>
<!DOCTYPE svg PUBLIC "-//W3C//DTD SVG 1.1//EN"
 "http://www.w3.org/Graphics/SVG/1.1/DTD/svg11.dtd">
<!-- Generated by graphviz version 2.26.3 (20100126.1600)
 -->
<!-- Title: Heaven Pages: 1 -->
<svg width="162pt" height="120pt"
 viewBox="0.00 0.00 162.00 120.00" xmlns="http://www.w3.org/2000/svg" xmlns:xlink="http://www.w3.org/1999/xlink">
<g id="graph1" class="graph" transform="scale(1 1) rotate(0) translate(4 116)">
<title>Heaven</title>
<polygon fill="white" stroke="white" points="-4,5 -4,-116 159,-116 159,5 -4,5"/>
<!-- Sun -->
<g id="node2" class="node"><title>Sun</title>
<ellipse fill="none" stroke="black" cx="31" cy="-93" rx="31.1127" ry="18.3848"/>
<text text-anchor="middle" x="31" y="-89.4" font-family="Times Roman,serif" font-size="14.00">Sun</text>
</g>
<!-- Stars -->
<g id="node3" class="node"><title>Stars</title>
<ellipse fill="none" stroke="black" cx="117" cy="-93" rx="36.977" ry="18.3848"/>
<text text-anchor="middle" x="117" y="-89.4" font-family="Times Roman,serif" font-size="14.00">Stars</text>
</g>
<!-- Sun&#45;&gt;Stars -->
<g id="edge5" class="edge"><title>Sun&#45;&gt;Stars</title>
<path fill="none" stroke="black" d="M55.8594,-104.406C63.4982,-106.485 71.1371,-107.251 78.7759,-106.704"/>
<polygon fill="black" stroke="black" points="79.4335,-110.145 88.818,-105.227 78.4152,-103.219 79.4335,-110.145"/>
</g>
<!-- Earth -->
<g id="node7" class="node"><title>Earth</title>
<ellipse fill="none" stroke="black" cx="74" cy="-19" rx="38.8909" ry="18.3848"/>
<text text-anchor="middle" x="74" y="-15.4" font-family="Times Roman,serif" font-size="14.00">Earth</text>
</g>
<!-- Sun&#45;&gt;Earth -->
<g id="edge7" class="edge"><title>Sun&#45;&gt;Earth</title>
<path fill="none" stroke="black" d="M35.7135,-74.7079C40.0864,-65.6637 46.3354,-54.5958 52.5945,-44.7152"/>
<polygon fill="black" stroke="black" points="55.7132,-46.3433 58.2921,-36.0671 49.8677,-42.4922 55.7132,-46.3433"/>
</g>
<!-- Stars&#45;&gt;Sun -->
<g id="edge3" class="edge"><title>Stars&#45;&gt;Sun</title>
<path fill="none" stroke="black" d="M88.818,-80.7727C81.1791,-79.0739 73.5403,-78.6887 65.9015,-79.6172"/>
<polygon fill="black" stroke="black" points="64.9948,-76.2284 55.8594,-81.5945 66.3472,-83.0965 64.9948,-76.2284"/>
</g>
<!-- Stars&#45;&gt;Earth -->
<g id="edge11" class="edge"><title>Stars&#45;&gt;Earth</title>
<path fill="none" stroke="black" d="M101.226,-75.8369C95.2225,-67.1009 88.6811,-56.2702 83.3854,-46.4142"/>
<polygon fill="black" stroke="black" points="86.423,-44.6672 78.748,-37.3634 80.1931,-47.8593 86.423,-44.6672"/>
</g>
<!-- Earth&#45;&gt;Sun -->
<g id="edge9" class="edge"><title>Earth&#45;&gt;Sun</title>
<path fill="none" stroke="black" d="M69.2059,-37.4586C64.7031,-46.7481 58.2438,-58.1405 51.8335,-68.1844"/>
<polygon fill="black" stroke="black" points="48.877,-66.3097 46.2631,-76.577 54.7093,-70.1807 48.877,-66.3097"/>
<text text-anchor="middle" x="61.9707" y="-47.4178" font-family="Times Roman,serif" font-size="14.00" fill="red">X</text>
</g>
<!-- Earth&#45;&gt;Stars -->
<g id="edge13" class="edge"><title>Earth&#45;&gt;Stars</title>
<path fill="none" stroke="black" d="M89.9341,-36.3965C95.854,-45.0336 102.28,-55.6746 107.51,-65.3905"/>
<polygon fill="black" stroke="black" points="104.418,-67.032 112.102,-74.3267 110.644,-63.8326 104.418,-67.032"/>
<text text-anchor="middle" x="98.3899" y="-44.0436" font-family="Times Roman,serif" font-size="14.00" fill="red">X</text>
</g>
</g>
</svg>
