<?xml version="1.0" encoding="UTF-8" standalone="no"?>
<!DOCTYPE svg PUBLIC "-//W3C//DTD SVG 1.1//EN"
 "http://www.w3.org/Graphics/SVG/1.1/DTD/svg11.dtd">
<!-- Generated by graphviz version 2.26.3 (20100126.1600)
 -->
<!-- Title: Markov Pages: 1 -->
<svg width="322pt" height="168pt"
 viewBox="0.00 0.00 322.00 168.00" xmlns="http://www.w3.org/2000/svg" xmlns:xlink="http://www.w3.org/1999/xlink">
<g id="graph1" class="graph" transform="scale(1 1) rotate(0) translate(4 164)">
<title>Markov</title>
<polygon fill="white" stroke="white" points="-4,5 -4,-164 319,-164 319,5 -4,5"/>
<!-- O -->
<g id="node1" class="node"><title>O</title>
<ellipse fill="none" stroke="black" cx="74" cy="-129" rx="74.2462" ry="31.1127"/>
<text text-anchor="middle" x="74" y="-134.4" font-family="Times Roman,serif" font-size="14.00">Obesity </text>
<text text-anchor="middle" x="74" y="-116.4" font-family="Times Roman,serif" font-size="14.00"> x1 = F1(u1)</text>
</g>
<!-- E -->
<g id="node3" class="node"><title>E</title>
<ellipse fill="none" stroke="black" cx="157" cy="-31" rx="111.222" ry="31.1127"/>
<text text-anchor="middle" x="157" y="-36.4" font-family="Times Roman,serif" font-size="14.00">Exercise </text>
<text text-anchor="middle" x="157" y="-18.4" font-family="Times Roman,serif" font-size="14.00"> x3 = F3(x1, x2, u3)</text>
</g>
<!-- O&#45;&gt;E -->
<g id="edge2" class="edge"><title>O&#45;&gt;E</title>
<path fill="none" stroke="black" d="M98.9027,-99.5968C106.966,-90.0765 116.03,-79.3746 124.557,-69.3059"/>
<polygon fill="black" stroke="black" points="127.46,-71.2945 131.252,-61.4015 122.118,-66.7704 127.46,-71.2945"/>
</g>
<!-- I -->
<g id="node4" class="node"><title>I</title>
<ellipse fill="none" stroke="black" cx="240" cy="-129" rx="74.2462" ry="31.1127"/>
<text text-anchor="middle" x="240" y="-134.4" font-family="Times Roman,serif" font-size="14.00">Internet </text>
<text text-anchor="middle" x="240" y="-116.4" font-family="Times Roman,serif" font-size="14.00"> x2 = F2(u2)</text>
</g>
<!-- I&#45;&gt;E -->
<g id="edge4" class="edge"><title>I&#45;&gt;E</title>
<path fill="none" stroke="black" d="M215.097,-99.5968C207.034,-90.0765 197.97,-79.3746 189.443,-69.3059"/>
<polygon fill="black" stroke="black" points="191.882,-66.7704 182.748,-61.4015 186.54,-71.2945 191.882,-66.7704"/>
</g>
</g>
</svg>
