<?xml version="1.0" encoding="UTF-8" standalone="no"?>
<!DOCTYPE svg PUBLIC "-//W3C//DTD SVG 1.1//EN"
 "http://www.w3.org/Graphics/SVG/1.1/DTD/svg11.dtd">
<!-- Generated by graphviz version 2.26.3 (20100126.1600)
 -->
<!-- Title: Ship Pages: 1 -->
<svg width="240pt" height="144pt"
 viewBox="0.00 0.00 240.00 144.00" xmlns="http://www.w3.org/2000/svg" xmlns:xlink="http://www.w3.org/1999/xlink">
<g id="graph1" class="graph" transform="scale(1 1) rotate(0) translate(4 140)">
<title>Ship</title>
<polygon fill="white" stroke="white" points="-4,5 -4,-140 237,-140 237,5 -4,5"/>
<!-- Shipyard -->
<g id="node1" class="node"><title>Shipyard</title>
<ellipse fill="none" stroke="black" cx="108" cy="-117" rx="53.9477" ry="18.3848"/>
<text text-anchor="middle" x="108" y="-113.4" font-family="Times Roman,serif" font-size="14.00">Shipyard</text>
</g>
<!-- Sight \n of ship -->
<g id="node3" class="node"><title>Sight \n of ship</title>
<ellipse fill="none" stroke="black" cx="46" cy="-31" rx="46.1672" ry="31.1127"/>
<text text-anchor="middle" x="46" y="-36.4" font-family="Times Roman,serif" font-size="14.00">Sight </text>
<text text-anchor="middle" x="46" y="-18.4" font-family="Times Roman,serif" font-size="14.00"> of ship</text>
</g>
<!-- Shipyard&#45;&gt;Sight \n of ship -->
<g id="edge2" class="edge"><title>Shipyard&#45;&gt;Sight \n of ship</title>
<path fill="none" stroke="black" d="M94.8514,-98.7616C88.2232,-89.5676 79.9433,-78.0826 72.094,-67.1949"/>
<polygon fill="black" stroke="black" points="74.8972,-65.0981 66.21,-59.0332 69.2189,-69.1918 74.8972,-65.0981"/>
</g>
<!-- Ship over \n horizon -->
<g id="node5" class="node"><title>Ship over \n horizon</title>
<ellipse fill="none" stroke="black" cx="171" cy="-31" rx="60.8112" ry="31.1127"/>
<text text-anchor="middle" x="171" y="-36.4" font-family="Times Roman,serif" font-size="14.00">Ship over </text>
<text text-anchor="middle" x="171" y="-18.4" font-family="Times Roman,serif" font-size="14.00"> horizon</text>
</g>
<!-- Shipyard&#45;&gt;Ship over \n horizon -->
<g id="edge4" class="edge"><title>Shipyard&#45;&gt;Ship over \n horizon</title>
<path fill="none" stroke="black" d="M121.361,-98.7616C127.802,-89.969 135.778,-79.0811 143.438,-68.624"/>
<polygon fill="black" stroke="black" points="146.393,-70.5137 149.479,-60.3783 140.746,-66.377 146.393,-70.5137"/>
</g>
</g>
</svg>
