<?xml version="1.0" encoding="UTF-8" standalone="no"?>
<!DOCTYPE svg PUBLIC "-//W3C//DTD SVG 1.1//EN"
 "http://www.w3.org/Graphics/SVG/1.1/DTD/svg11.dtd">
<!-- Generated by graphviz version 2.26.3 (20100126.1600)
 -->
<!-- Title: President Pages: 1 -->
<svg width="586pt" height="266pt"
 viewBox="0.00 0.00 586.00 266.00" xmlns="http://www.w3.org/2000/svg" xmlns:xlink="http://www.w3.org/1999/xlink">
<g id="graph1" class="graph" transform="scale(1 1) rotate(0) translate(4 262)">
<title>President</title>
<polygon fill="white" stroke="white" points="-4,5 -4,-262 583,-262 583,5 -4,5"/>
<!-- K -->
<g id="node1" class="node"><title>K</title>
<ellipse fill="none" stroke="black" cx="304" cy="-227" rx="70.9184" ry="31.1127"/>
<text text-anchor="middle" x="304" y="-232.4" font-family="Times Roman,serif" font-size="14.00">Kennedy </text>
<text text-anchor="middle" x="304" y="-214.4" font-family="Times Roman,serif" font-size="14.00"> elected = Y</text>
</g>
<!-- O -->
<g id="node2" class="node"><title>O</title>
<ellipse fill="none" stroke="black" cx="86" cy="-129" rx="85.7684" ry="31.1127"/>
<text text-anchor="middle" x="86" y="-134.4" font-family="Times Roman,serif" font-size="14.00">Oswald shoots </text>
<text text-anchor="middle" x="86" y="-116.4" font-family="Times Roman,serif" font-size="14.00"> Kennedy = Y</text>
</g>
<!-- K&#45;&gt;O -->
<g id="edge2" class="edge"><title>K&#45;&gt;O</title>
<path fill="none" stroke="black" d="M254.532,-204.762C223.299,-190.722 182.659,-172.452 149.113,-157.372"/>
<polygon fill="black" stroke="black" points="150.409,-154.117 139.853,-153.209 147.538,-160.502 150.409,-154.117"/>
</g>
<!-- S -->
<g id="node3" class="node"><title>S</title>
<ellipse fill="none" stroke="black" cx="304" cy="-129" rx="113.844" ry="31.1127"/>
<text text-anchor="middle" x="304" y="-134.4" font-family="Times Roman,serif" font-size="14.00">Someone else </text>
<text text-anchor="middle" x="304" y="-116.4" font-family="Times Roman,serif" font-size="14.00"> shoots Kennedy = N</text>
</g>
<!-- K&#45;&gt;S -->
<g id="edge4" class="edge"><title>K&#45;&gt;S</title>
<path fill="none" stroke="black" d="M304,-195.992C304,-187.859 304,-178.959 304,-170.378"/>
<polygon fill="black" stroke="black" points="307.5,-170.142 304,-160.142 300.5,-170.142 307.5,-170.142"/>
</g>
<!-- M -->
<g id="node4" class="node"><title>M</title>
<ellipse fill="none" stroke="black" cx="507" cy="-129" rx="70.9184" ry="31.1127"/>
<text text-anchor="middle" x="507" y="-134.4" font-family="Times Roman,serif" font-size="14.00">Moon </text>
<text text-anchor="middle" x="507" y="-116.4" font-family="Times Roman,serif" font-size="14.00"> landing = Y</text>
</g>
<!-- K&#45;&gt;M -->
<g id="edge6" class="edge"><title>K&#45;&gt;M</title>
<path fill="none" stroke="black" d="M351.851,-203.899C381.17,-189.745 418.871,-171.545 449.766,-156.63"/>
<polygon fill="black" stroke="black" points="451.635,-159.615 459.119,-152.115 448.592,-153.311 451.635,-159.615"/>
</g>
<!-- D -->
<g id="node5" class="node"><title>D</title>
<ellipse fill="none" stroke="black" cx="195" cy="-31" rx="82.2301" ry="31.1127"/>
<text text-anchor="middle" x="195" y="-36.4" font-family="Times Roman,serif" font-size="14.00">Kennedy seen </text>
<text text-anchor="middle" x="195" y="-18.4" font-family="Times Roman,serif" font-size="14.00"> dead = Y</text>
</g>
<!-- O&#45;&gt;D -->
<g id="edge8" class="edge"><title>O&#45;&gt;D</title>
<path fill="none" stroke="black" d="M118.114,-100.127C129.867,-89.56 143.301,-77.4816 155.617,-66.4088"/>
<polygon fill="black" stroke="black" points="158.019,-68.9555 163.115,-59.6668 153.339,-63.75 158.019,-68.9555"/>
</g>
<!-- S&#45;&gt;D -->
<g id="edge10" class="edge"><title>S&#45;&gt;D</title>
<path fill="none" stroke="black" d="M270.704,-99.0643C259.303,-88.8135 246.435,-77.244 234.585,-66.5906"/>
<polygon fill="black" stroke="black" points="236.748,-63.8284 226.972,-59.7452 232.068,-69.0338 236.748,-63.8284"/>
</g>
</g>
</svg>
