<?xml version="1.0" encoding="UTF-8" standalone="no"?>
<!DOCTYPE svg PUBLIC "-//W3C//DTD SVG 1.1//EN"
 "http://www.w3.org/Graphics/SVG/1.1/DTD/svg11.dtd">
<!-- Generated by graphviz version 2.26.3 (20100126.1600)
 -->
<!-- Title: EY3 Pages: 1 -->
<svg width="124pt" height="194pt"
 viewBox="0.00 0.00 124.00 194.00" xmlns="http://www.w3.org/2000/svg" xmlns:xlink="http://www.w3.org/1999/xlink">
<g id="graph1" class="graph" transform="scale(1 1) rotate(0) translate(4 190)">
<title>EY3</title>
<polygon fill="white" stroke="white" points="-4,5 -4,-190 121,-190 121,5 -4,5"/>
<!-- Alarm -->
<g id="node1" class="node"><title>Alarm</title>
<ellipse fill="none" stroke="black" cx="58" cy="-167" rx="39.8075" ry="18.3848"/>
<text text-anchor="middle" x="58" y="-163.4" font-family="Times Roman,serif" font-size="14.00">Alarm</text>
</g>
<!-- Burglar -->
<g id="node3" class="node"><title>Burglar</title>
<ellipse fill="none" stroke="black" cx="58" cy="-93" rx="48.0833" ry="18.3848"/>
<text text-anchor="middle" x="58" y="-89.4" font-family="Times Roman,serif" font-size="14.00">Burglar</text>
</g>
<!-- Alarm&#45;&gt;Burglar -->
<g id="edge2" class="edge"><title>Alarm&#45;&gt;Burglar</title>
<path fill="none" stroke="black" d="M58,-148.327C58,-140.264 58,-130.648 58,-121.711"/>
<polygon fill="black" stroke="black" points="61.5001,-121.667 58,-111.667 54.5001,-121.667 61.5001,-121.667"/>
</g>
<!-- Recession -->
<g id="node5" class="node"><title>Recession</title>
<ellipse fill="none" stroke="black" cx="58" cy="-19" rx="58.1882" ry="18.3848"/>
<text text-anchor="middle" x="58" y="-15.4" font-family="Times Roman,serif" font-size="14.00">Recession</text>
</g>
<!-- Burglar&#45;&gt;Recession -->
<g id="edge4" class="edge"><title>Burglar&#45;&gt;Recession</title>
<path fill="none" stroke="black" d="M58,-74.3267C58,-66.2639 58,-56.6477 58,-47.7115"/>
<polygon fill="black" stroke="black" points="61.5001,-47.6673 58,-37.6674 54.5001,-47.6674 61.5001,-47.6673"/>
</g>
</g>
</svg>
