<?xml version="1.0" encoding="UTF-8" standalone="no"?>
<!DOCTYPE svg PUBLIC "-//W3C//DTD SVG 1.1//EN"
 "http://www.w3.org/Graphics/SVG/1.1/DTD/svg11.dtd">
<!-- Generated by graphviz version 2.26.3 (20100126.1600)
 -->
<!-- Title: Discrete Pages: 1 -->
<svg width="206pt" height="194pt"
 viewBox="0.00 0.00 206.00 194.00" xmlns="http://www.w3.org/2000/svg" xmlns:xlink="http://www.w3.org/1999/xlink">
<g id="graph1" class="graph" transform="scale(1 1) rotate(0) translate(4 190)">
<title>Discrete</title>
<polygon fill="white" stroke="white" points="-4,5 -4,-190 203,-190 203,5 -4,5"/>
<!-- B -->
<g id="node1" class="node"><title>B</title>
<ellipse fill="none" stroke="black" cx="27" cy="-93" rx="27" ry="18.3848"/>
<text text-anchor="middle" x="27" y="-89.4" font-family="Times Roman,serif" font-size="14.00">B</text>
</g>
<!-- A -->
<g id="node3" class="node"><title>A</title>
<ellipse fill="none" stroke="black" cx="99" cy="-19" rx="27" ry="18.3848"/>
<text text-anchor="middle" x="99" y="-15.4" font-family="Times Roman,serif" font-size="14.00">A</text>
</g>
<!-- B&#45;&gt;A -->
<g id="edge2" class="edge"><title>B&#45;&gt;A</title>
<path fill="none" stroke="black" d="M42.2693,-77.3065C52.3602,-66.9354 65.7474,-53.1763 76.9831,-41.6285"/>
<polygon fill="black" stroke="black" points="79.5345,-44.0252 83.9996,-34.4171 74.5174,-39.1437 79.5345,-44.0252"/>
</g>
<!-- C -->
<g id="node4" class="node"><title>C</title>
<ellipse fill="none" stroke="black" cx="99" cy="-93" rx="27" ry="18.3848"/>
<text text-anchor="middle" x="99" y="-89.4" font-family="Times Roman,serif" font-size="14.00">C</text>
</g>
<!-- C&#45;&gt;A -->
<g id="edge4" class="edge"><title>C&#45;&gt;A</title>
<path fill="none" stroke="black" d="M99,-74.3267C99,-66.2639 99,-56.6477 99,-47.7115"/>
<polygon fill="black" stroke="black" points="102.5,-47.6673 99,-37.6674 95.5001,-47.6674 102.5,-47.6673"/>
</g>
<!-- E -->
<g id="node6" class="node"><title>E</title>
<ellipse fill="none" stroke="black" cx="171" cy="-167" rx="27" ry="18.3848"/>
<text text-anchor="middle" x="171" y="-163.4" font-family="Times Roman,serif" font-size="14.00">E</text>
</g>
<!-- D -->
<g id="node8" class="node"><title>D</title>
<ellipse fill="none" stroke="black" cx="171" cy="-93" rx="27" ry="18.3848"/>
<text text-anchor="middle" x="171" y="-89.4" font-family="Times Roman,serif" font-size="14.00">D</text>
</g>
<!-- E&#45;&gt;D -->
<g id="edge6" class="edge"><title>E&#45;&gt;D</title>
<path fill="none" stroke="black" d="M171,-148.327C171,-140.264 171,-130.648 171,-121.711"/>
<polygon fill="black" stroke="black" points="174.5,-121.667 171,-111.667 167.5,-121.667 174.5,-121.667"/>
</g>
<!-- D&#45;&gt;A -->
<g id="edge8" class="edge"><title>D&#45;&gt;A</title>
<path fill="none" stroke="black" d="M155.731,-77.3065C145.64,-66.9354 132.253,-53.1763 121.017,-41.6285"/>
<polygon fill="black" stroke="black" points="123.483,-39.1437 114,-34.4171 118.465,-44.0252 123.483,-39.1437"/>
</g>
</g>
</svg>
