<?xml version="1.0" encoding="UTF-8" standalone="no"?>
<!DOCTYPE svg PUBLIC "-//W3C//DTD SVG 1.1//EN"
 "http://www.w3.org/Graphics/SVG/1.1/DTD/svg11.dtd">
<!-- Generated by graphviz version 2.26.3 (20100126.1600)
 -->
<!-- Title: EY17 Pages: 1 -->
<svg width="222pt" height="120pt"
 viewBox="0.00 0.00 222.00 120.00" xmlns="http://www.w3.org/2000/svg" xmlns:xlink="http://www.w3.org/1999/xlink">
<g id="graph1" class="graph" transform="scale(1 1) rotate(0) translate(4 116)">
<title>EY17</title>
<polygon fill="white" stroke="white" points="-4,5 -4,-116 219,-116 219,5 -4,5"/>
<!-- Alarm -->
<g id="node1" class="node"><title>Alarm</title>
<ellipse fill="none" stroke="black" cx="40" cy="-93" rx="39.8075" ry="18.3848"/>
<text text-anchor="middle" x="40" y="-89.4" font-family="Times Roman,serif" font-size="14.00">Alarm</text>
</g>
<!-- Burglar -->
<g id="node3" class="node"><title>Burglar</title>
<ellipse fill="none" stroke="black" cx="98" cy="-19" rx="48.0833" ry="18.3848"/>
<text text-anchor="middle" x="98" y="-15.4" font-family="Times Roman,serif" font-size="14.00">Burglar</text>
</g>
<!-- Alarm&#45;&gt;Burglar -->
<g id="edge2" class="edge"><title>Alarm&#45;&gt;Burglar</title>
<path fill="none" stroke="black" d="M53.7452,-75.463C60.8637,-66.3808 69.6965,-55.1114 77.5944,-45.0347"/>
<polygon fill="black" stroke="black" points="80.5364,-46.9548 83.9506,-36.9251 75.027,-42.6366 80.5364,-46.9548"/>
</g>
<!-- Recession -->
<g id="node4" class="node"><title>Recession</title>
<ellipse fill="none" stroke="black" cx="156" cy="-93" rx="58.1882" ry="18.3848"/>
<text text-anchor="middle" x="156" y="-89.4" font-family="Times Roman,serif" font-size="14.00">Recession</text>
</g>
<!-- Recession&#45;&gt;Burglar -->
<g id="edge4" class="edge"><title>Recession&#45;&gt;Burglar</title>
<path fill="none" stroke="black" d="M141.663,-74.7079C134.587,-65.6798 125.93,-54.6351 118.196,-44.7678"/>
<polygon fill="black" stroke="black" points="120.896,-42.5379 111.972,-36.8264 115.386,-46.8561 120.896,-42.5379"/>
</g>
</g>
</svg>
